<?xml version="1.0" encoding="UTF-8"?><svg id="uuid-3e4aeb7c-6585-4bf4-9a32-e7867ba91b97" xmlns="http://www.w3.org/2000/svg" viewBox="0 0 52.74 75.21"><defs><style>.uuid-6523a4bd-7a14-427e-98dd-052ed979eba2{fill:#fff;}</style></defs><path class="uuid-6523a4bd-7a14-427e-98dd-052ed979eba2" d="m8.94,11.23c8.46,8.46,16.92,16.92,25.38,25.38,1.19,1.19,2.38,2.38,3.57,3.57v-4.24c-8.26,8.26-16.52,16.52-24.78,24.78-1.17,1.17-2.33,2.33-3.5,3.5-2.73,2.73,1.51,6.98,4.24,4.24,8.26-8.26,16.52-16.52,24.78-24.78,1.17-1.17,2.33-2.33,3.5-3.5s1.15-3.09,0-4.24c-8.46-8.46-16.92-16.92-25.38-25.38-1.19-1.19-2.38-2.38-3.57-3.57-2.73-2.73-6.98,1.51-4.24,4.24h0Z"/></svg>