<?xml version="1.0" encoding="UTF-8"?><svg id="uuid-05d31444-c0fd-4a80-9118-d59fa211c382" xmlns="http://www.w3.org/2000/svg" viewBox="0 0 52.74 75.21"><defs><style>.uuid-58f9b9a3-5915-40a2-acc3-9267ae768855{fill:#fff;}</style></defs><path class="uuid-58f9b9a3-5915-40a2-acc3-9267ae768855" d="m37.9,6.98c-8.46,8.46-16.92,16.92-25.38,25.38-1.19,1.19-2.38,2.38-3.57,3.57s-1.15,3.09,0,4.24c8.26,8.26,16.52,16.52,24.78,24.78,1.17,1.17,2.33,2.33,3.5,3.5,2.73,2.73,6.98-1.51,4.24-4.24-8.26-8.26-16.52-16.52-24.78-24.78-1.17-1.17-2.33-2.33-3.5-3.5v4.24c8.46-8.46,16.92-16.92,25.38-25.38,1.19-1.19,2.38-2.38,3.57-3.57,2.73-2.73-1.51-6.98-4.24-4.24h0Z"/></svg>