<?xml version="1.0" encoding="UTF-8"?><svg id="uuid-401af737-1fcd-4653-a820-05058c25159c" xmlns="http://www.w3.org/2000/svg" viewBox="0 0 200 194.32"><defs><style>.uuid-d76ece6d-e444-4a4b-a0b0-590c025447fd{fill:#fff;}.uuid-712a099e-1a12-4b10-a943-910d948c5404{fill:#029902;}</style></defs><circle class="uuid-712a099e-1a12-4b10-a943-910d948c5404" cx="100" cy="96.5" r="87.13"/><path class="uuid-d76ece6d-e444-4a4b-a0b0-590c025447fd" d="m81.14,142.98c-2.47-1.18-3.35-3.43-2.11-5.45.8-1.31,2.04-1.82,3.53-1.82,4.2,0,8.4-.03,12.6.02.92,0,1.22-.26,1.18-1.18-.07-1.63-.08-3.27,0-4.89.05-.94-.37-1.19-1.17-1.29-3.11-.38-6.07-1.31-8.91-2.62-4.14-1.9-7.6-4.69-10.58-8.08-3.8-4.31-6.28-9.28-7.35-14.94-.48-2.53-.58-5.1-.59-7.66,0-2.05-.17-4.11.11-6.16.25-1.88,1.81-3.15,3.74-3.1,1.78.04,3.28,1.39,3.45,3.21.29,3.04.01,6.1.16,9.15.28,5.54,2.27,10.39,5.92,14.56,2.98,3.41,6.49,6.12,10.86,7.41,9.07,2.69,17.38,1.34,24.59-5.09,4.71-4.2,7.51-9.41,8.15-15.7.28-2.73.1-5.5.12-8.24,0-.72.03-1.45.12-2.17.23-1.82,1.72-3.12,3.53-3.14,1.87-.02,3.43,1.26,3.65,3.1.29,2.41.15,4.83.1,7.24-.05,2.74-.27,5.48-.92,8.17-1.27,5.23-3.79,9.78-7.36,13.75-4.63,5.13-10.28,8.54-17.08,9.96-.77.16-1.54.28-2.32.38-.65.08-.92.36-.9,1.06.05,1.72.05,3.45,0,5.17-.03.83.24,1.1,1.08,1.09,4.2-.03,8.4-.01,12.6-.02,1.27,0,2.4.33,3.25,1.32,1.75,2.04.99,4.65-1.73,5.96h-37.71Z"/><path class="uuid-d76ece6d-e444-4a4b-a0b0-590c025447fd" d="m82.01,82.31c0-4.62-.04-9.24,0-13.87.08-7.88,3.79-13.51,10.82-16.91,5.96-2.88,14.02-1.53,18.9,2.93,3.19,2.91,5.34,6.37,5.97,10.68.15,1.04.25,2.1.25,3.16.02,9.33.06,18.67,0,28-.05,7.41-3.47,12.94-10,16.32-7.51,3.88-16.47,1.81-21.85-4.72-2.77-3.36-4.05-7.23-4.08-11.54-.03-4.68,0-9.36,0-14.05Z"/></svg>