<?xml version="1.0" encoding="UTF-8"?>
<svg id="Capa_5" xmlns="http://www.w3.org/2000/svg" viewBox="0 0 496 454">
  <defs>
    <style>
      .cls-1 {
        font-family: WorkSans-Medium, 'Work Sans';
        font-size: 64.03px;
        font-weight: 500;
      }

      .cls-1, .cls-2 {
        fill="currentColor";
      }

      .cls-3 {
        letter-spacing: -.01em;
      }
    </style>
  </defs>
  <text class="cls-1" transform="translate(67.67 359.77)"><tspan class="cls-3" x="0" y="0">A</tspan><tspan x="41.88" y="0">dmisiones </tspan></text>
  <g>
    <path class="cls-2" d="M278.85,259.39c-17.96,0-35.92,0-53.88,0-.75,0-1.5.02-2.24-.01-2.66-.12-4.36-1.72-4.39-4.11-.03-2.4,1.67-4.08,4.28-4.21.91-.04,1.83-.02,2.74-.02,35.25,0,70.51,0,105.76,0,5.46,0,6.53-1.07,6.53-6.6,0-31.32,0-62.65,0-93.97,0-.58.01-1.17,0-1.75-.13-3.34-1.62-4.81-5-4.82-10.39-.02-20.79-.01-31.18-.01-22.37,0-44.73,0-67.1,0-.91,0-1.83.04-2.74-.04-2.28-.2-4.02-1.9-3.99-4.04.03-2.27,1.2-3.79,3.48-4.23,1.13-.22,2.31-.29,3.47-.3,5.49-.03,10.98-.1,16.46.02,2.32.05,3.02-.83,3-3.07-.08-10-.06-19.99-.02-29.99.01-3.18.29-6.34,1.77-9.24,3.14-6.18,8.37-9.16,15.12-9.26,10.22-.15,20.46-.16,30.68,0,10.23.16,16.91,7.13,16.93,17.35.02,10.41.07,20.83-.04,31.24-.03,2.36.8,3.01,3.03,2.99,4.57-.05,9.14-.24,13.71.24,5.93.63,10.74,5.57,10.74,11.51.05,33.57.05,67.15,0,100.72-.01,6.59-5.38,11.58-12.21,11.59-18.29.03-36.58.01-54.88.01ZM286.22,135.27c6.82,0,13.63.01,20.45,0,3.07,0,3.2-.14,3.2-3.28,0-10.33.03-20.66,0-30.99-.02-5.7-2.92-8.6-8.61-8.61-9.98-.02-19.95-.02-29.93,0-5.61.01-8.68,3.05-8.7,8.62-.03,10.41.06,20.82-.06,31.23-.03,2.5.89,3.11,3.2,3.07,6.81-.12,13.63-.04,20.45-.04Z"/>
    <path class="cls-2" d="M214.25,138.03c0,12.41-.07,24.82.03,37.23.05,6.33-2.66,11.02-7.76,14.49-.83.56-1.65,1.13-2.49,1.66-3.74,2.36-5.43,5.49-5.36,10.17.25,17.16.1,34.32.09,51.48,0,1,.06,2.03-.17,2.98-.48,1.99-1.81,3.17-3.88,3.28-2.09.11-3.53-.97-4.15-2.91-.35-1.09-.42-2.29-.42-3.45-.02-17.41,0-34.82-.02-52.23,0-6.97,2.7-12.39,8.73-16.07,1.48-.91,2.86-2.01,4.19-3.12,2.04-1.7,2.91-3.92,2.91-6.61-.03-24.49,0-48.98-.03-73.47,0-6.01-3.11-9.08-9.07-9.09-9.89-.01-19.79-.02-29.68,0-5.53.01-8.75,3.09-8.76,8.62-.05,24.66-.03,49.31,0,73.97,0,3.3,1.25,5.98,4.17,7.75,1.07.64,2.05,1.43,3.11,2.08,5.85,3.6,8.49,8.94,8.5,15.69.02,17.66.01,35.32-.01,52.98,0,.99-.1,2.02-.42,2.95-.66,1.93-2.07,3.02-4.16,2.9-2.07-.11-3.4-1.3-3.87-3.29-.23-.95-.16-1.99-.16-2.98,0-17.58-.06-35.15.04-52.73.02-3.32-1.11-5.81-3.74-7.7-1.49-1.07-2.99-2.11-4.48-3.17-4.8-3.41-7.35-7.94-7.34-13.96.05-24.91.01-49.81.02-74.72,0-9.81,6.61-16.83,16.39-17.02,10.47-.2,20.95-.21,31.42,0,9.79.19,16.37,7.21,16.39,17.03.02,12.41,0,24.82,0,37.23Z"/>
    <path class="cls-2" d="M286.4,35.14c10.88.02,19.28,8.34,19.44,19.26.17,10.83-8.46,19.47-19.46,19.48-11.03.01-19.54-8.43-19.54-19.38,0-10.94,8.53-19.39,19.56-19.37ZM286.32,65.23c6.09,0,10.87-4.62,10.93-10.57.06-6.09-4.72-10.86-10.9-10.86-6.17,0-10.81,4.51-10.86,10.57-.05,6.23,4.56,10.85,10.82,10.86Z"/>
    <path class="cls-2" d="M181.96,73.92c-10.9-.05-19.18-8.42-19.19-19.41,0-11.17,8.43-19.5,19.68-19.42,10.85.07,19.23,8.68,19.05,19.54-.18,11.22-8.4,19.33-19.55,19.29ZM192.97,54.41c-.04-5.87-5.02-10.91-10.81-10.93-5.88-.02-10.89,5.13-10.85,11.14.04,5.9,4.99,10.91,10.8,10.92,5.89.02,10.89-5.11,10.85-11.13Z"/>
  </g>
</svg>