<?xml version="1.0" encoding="UTF-8"?>
<svg id="Capa_5" xmlns="http://www.w3.org/2000/svg" viewBox="0 0 496 454">
  <defs>
    <style>
      .cls-1 {
        font-family: WorkSans-Medium, 'Work Sans';
        font-size: 64.03px;
        font-weight: 500;
      }

      .cls-1, .cls-2 {
        fill="currentColor";
      }

      .cls-3 {
        letter-spacing: -.01em;
      }

      .cls-4 {
        letter-spacing: 0em;
      }

      .cls-5 {
        letter-spacing: 0em;
      }

      .cls-6 {
        letter-spacing: 0em;
      }
    </style>
  </defs>
  <text class="cls-1" transform="translate(12.92 358.87)"><tspan class="cls-4" x="0" y="0">A</tspan><tspan class="cls-6" x="42.32" y="0">s</tspan><tspan x="76.13" y="0">egu</tspan><tspan class="cls-3" x="187.28" y="0">r</tspan><tspan x="213.08" y="0">amie</tspan><tspan class="cls-5" x="364.89" y="0">n</tspan><tspan x="404.14" y="0">to </tspan></text>
  <g>
    <path class="cls-2" d="M335.97,213.06c-.11-17.05-.23-34.67.11-52,.11-5.43-1.84-10.44-5.49-14.11-3.59-3.61-8.46-5.59-13.74-5.59-.1,0-.2,0-.3,0-13.91.2-28.01.19-41.82.16l15.01-106.18.12-.81c.13-.9-.58-1.71-1.5-1.71l-79.09.02c-.94,0-1.66.84-1.49,1.75l.03.18,17.78,106.74c-15.35.04-31.15.07-46.71-.14-5.25-.05-10.19,1.89-13.84,5.52-3.66,3.64-5.64,8.55-5.59,13.83.18,18.4.15,37.11.12,55.2-.01,7.8-.03,15.59-.03,23.39,0,11.69,7.58,19.24,19.31,19.25,12.87,0,25.76,0,38.64-.01,32.47-.02,66.05-.04,99.07.11h.1c5.35,0,10.27-1.98,13.89-5.57,3.57-3.55,5.53-8.41,5.53-13.69,0-8.78-.06-17.7-.11-26.33ZM254.31,39.03h25.33c.92,0,1.63.8,1.5,1.7l-12.19,84.86c-.24,1.7-2.74,1.71-3,.02l-13.14-84.86c-.14-.9.57-1.71,1.5-1.71ZM260.73,155.76h-23.33c-.74,0-1.38-.53-1.5-1.25l-.54-3.23c8.81,0,17.62,0,26.43,0l.43,2.75c.14.9-.57,1.72-1.5,1.72ZM216.82,40.65c-.15-.91.56-1.73,1.5-1.73h24.54c.75,0,1.39.54,1.5,1.26l15.9,101.32c-8.84-.02-17.69-.02-26.54,0l-16.9-100.85ZM323.52,246.16c-1.7,1.71-4.31,2.59-7.44,2.6-10.09-.02-20.29-.03-30.4-.03-6.35,0-12.66,0-18.89,0h-29.29c-19.02,0-38.04,0-57.06,0-1.38,0-2.76-.11-4.08-.31-3.66-.57-6.47-3.6-6.69-7.22-.05-.78-.05-1.57-.05-2.49,0-7.23,0-14.45.02-21.68.03-18.28.06-37.19-.11-55.78-.03-3.18.81-5.65,2.5-7.35,1.7-1.71,4.31-2.62,7.54-2.62h.02c15.88.02,31.75.02,47.63.02l1.71,10.26h0s.04.21.04.21l.08.46s0,0,0,.01l.2,1.15h.02c.1.64.63,1.14,1.3,1.14h6.2s.02,0,.02,0h33.44c.81,0,1.45-.62,1.51-1.37v.15s.41-3.47.41-3.47l1.21-8.52c14.19,0,28.38,0,42.57,0,1.09,0,2.28.12,3.64.36,3.5.62,6.15,3.7,6.3,7.33.09,2.28.08,4.62.07,6.88,0,.76,0,1.52,0,2.27,0,6.8,0,13.6-.02,20.41-.03,16.5-.05,33.56.1,50.35.03,3.13-.81,5.57-2.49,7.26Z"/>
    <path class="cls-2" d="M297.46,189.74h-34.95c-2.28,0-4.15,1.87-4.15,4.15s1.87,4.15,4.15,4.15h34.95c2.28,0,4.15-1.87,4.15-4.15s-1.87-4.15-4.15-4.15Z"/>
    <path class="cls-2" d="M297.46,205.07h-34.95c-2.28,0-4.15,1.87-4.15,4.15s1.87,4.15,4.15,4.15h34.95c2.28,0,4.15-1.87,4.15-4.15s-1.87-4.15-4.15-4.15Z"/>
    <path class="cls-2" d="M235.34,221.08c0-.88,0-1.76,0-2.64-.04-5.97-4.54-10.48-10.48-10.5-3.3-.01-6.59-.02-9.94-.01-3.3,0-6.59,0-9.89.01-5.94.02-10.44,4.53-10.48,10.5,0,.87,0,1.74,0,2.61,0,1.3,0,2.6-.02,3.89-.03,1.59.62,2.78,1.92,3.51l.31.18h2.05l.31-.17c1.31-.73,1.96-1.91,1.93-3.51-.04-2.04-.02-4.13,0-6.2v-.3c.02-2.39,1.64-4.01,4.03-4.01,2,0,4,0,6.01,0h3.88s3.82,0,3.82,0c2,0,4,0,6.01,0,2.39,0,4.01,1.62,4.03,4.01v.26c.02,2.05.03,4.16,0,6.23-.03,1.6.62,2.78,1.93,3.51l.31.17h2.05l.31-.17c1.31-.73,1.96-1.91,1.93-3.51-.02-1.29-.02-2.58-.02-3.87h0Z"/>
    <path class="cls-2" d="M215.58,205.77h.06c3.19,0,6.21-1.27,8.52-3.57,2.35-2.34,3.64-5.43,3.63-8.69-.01-6.69-5.48-12.13-12.21-12.13-3.21,0-6.25,1.3-8.57,3.64-2.32,2.34-3.59,5.39-3.57,8.6.04,6.56,5.6,12.13,12.14,12.16ZM211.61,189.58c1.09-1.09,2.51-1.69,4.02-1.69,3.11,0,5.65,2.54,5.65,5.66,0,1.51-.6,2.95-1.69,4.04-1.07,1.07-2.47,1.66-3.93,1.66-3.1,0-5.72-2.63-5.72-5.73,0-1.47.59-2.87,1.67-3.95Z"/>
    <path class="cls-2" d="M297.46,220.34h-34.95c-2.28,0-4.15,1.87-4.15,4.15s1.87,4.15,4.15,4.15h34.95c2.28,0,4.15-1.87,4.15-4.15s-1.87-4.15-4.15-4.15Z"/>
  </g>
</svg>