<?xml version="1.0" encoding="UTF-8"?>
<svg id="uuid-7b4e5d7f-ad2b-4ec2-b52b-87aabde4e7ef" xmlns="http://www.w3.org/2000/svg" viewBox="0 0 400 400">
    <defs>
        <style>
            .uuid-f0a4bcb0-224e-4dbf-8095-54f5ad279be8 {
                font-family: WorkSans-Medium, 'Work Sans';
                font-size: 64.03px;
                font-weight: 500;
                fill: "currentColor";
            }
            <!-- .uuid-f0a4bcb0-224e-4dbf-8095-54f5ad279be8, .uuid-11dc2e1f-3e65-4faf-b7a8-cce0273feaf4 {
                fill: "currentColor";
            } -->
            .uuid-11dc2e1f-3e65-4faf-b7a8-cce0273feaf4 {
                fill: "currentColor";
                stroke-miterlimit: 10;
                stroke-width: 2px;
            }
            .uuid-fd843033-0876-4e6b-9969-b081f767fdf3 {
                letter-spacing: 0em;
                fill: "currentColor";
            }
            .uuid-23faf9ae-a162-49c4-a3d9-91c3336017d8 {
                letter-spacing: -0.02em;
            }
            .uuid-35922f02-07f3-4fb0-9ccb-b5e8876f233f {                
                stroke-linecap: round;
                stroke-linejoin: round;
                stroke-width: 8px;
                stroke: currentColor;
                fill: "currentColor";
            }
        </style>
    </defs>
<text class="uuid-f0a4bcb0-224e-4dbf-8095-54f5ad279be8" transform="translate(-9.57 355.41)">
<tspan class="uuid-23faf9ae-a162-49c4-a3d9-91c3336017d8" x="0" y="0">Aseguramiento</tspan>
<!-- <tspan x="41.36" y="0">segu</tspan>
<tspan class="uuid-fd843033-0876-4e6b-9969-b081f767fdf3" x="121.97" y="0">ra</tspan>
<tspan x="158.4" y="0">miento </tspan> -->
</text>
<path class="uuid-11dc2e1f-3e65-4faf-b7a8-cce0273feaf4" d="m200.06,140.27c22.86,0,45.73.22,68.59-.1,10.03-.14,18.07,7.5,17.97,17.91-.24,26.06-.24,52.13,0,78.2.1,10.46-7.93,17.96-17.97,17.91-45.8-.22-91.61-.09-137.41-.1-10.85,0-17.76-6.9-17.76-17.7,0-26.14.17-52.29-.09-78.43-.1-9.94,7.71-17.93,17.86-17.79,22.94.31,45.88.1,68.82.1Zm-.04,107.03c22.71,0,45.42-.03,68.13.02,6.92.02,11.48-3.88,11.41-11.34-.22-23.53-.08-47.06-.08-70.58,0-3.15.06-6.31-.08-9.46-.18-4.22-3.35-7.73-7.51-8.47-1.28-.23-2.6-.38-3.9-.38-45.34-.02-90.68,0-136.02-.04-6.94,0-11.6,3.79-11.53,11.46.22,25.76.08,51.51.09,77.27,0,.85,0,1.69.05,2.54.25,4.33,3.37,7.88,7.65,8.6,1.51.25,3.06.37,4.59.37,22.4.02,44.8.02,67.2.01Z"/>
<path class="uuid-11dc2e1f-3e65-4faf-b7a8-cce0273feaf4" d="m171.21,234.76c-19.55,1.31-37.73-14.47-39.31-33.57-1.85-22.48,14.48-39.57,33.35-41.51,22.36-2.31,39.83,14.1,41.79,33.48,2.32,22.96-15.44,41.01-35.84,41.6Zm.42-68.36c-14.96-.02-26.54,7.91-30.95,20.03-3.6,9.91-2.34,19.36,3.45,28.17,1.3,1.98,1.54,1.95,2.62-.07,2.23-4.17,5.35-7.54,9.39-9.95,1.65-.99,1.31-1.55.21-2.64-3.13-3.13-4.67-7.04-4.93-11.39-.48-8.19,4.82-15.71,12.6-18.14,8.02-2.5,16.4.61,20.88,7.76,4.32,6.89,3.48,15.75-2.22,21.72-1.26,1.32-1.3,1.84.35,2.78,3.9,2.22,6.79,5.5,9.01,9.38,1.46,2.55,1.58,2.59,3.11.16,6.32-10.06,7.11-20.61,1.68-31.14-5.63-10.91-15.08-16.22-25.2-16.67Zm-2.19,41.43c-7.92.01-14.82,4.79-17.51,12-.58,1.55-.46,2.5,1.09,3.39,10.97,6.31,21.88,6.31,32.86.04,1.62-.93,1.78-1.91,1.15-3.55-2.75-7.18-9.65-11.89-17.6-11.87Zm11.08-17.83c.09-6.42-4.49-11.16-10.87-11.24-6.38-.08-11.11,4.4-11.21,10.62-.11,6.39,4.58,11.31,10.82,11.35,6.16.04,11.18-4.74,11.27-10.73Z"/>
<path class="uuid-11dc2e1f-3e65-4faf-b7a8-cce0273feaf4" d="m244.59,207.43c-5.46,0-10.93,0-16.39,0-1,0-2.01.04-2.95-.41-1.41-.67-2.1-1.82-2.02-3.33.07-1.41.8-2.45,2.18-2.98,1.04-.4,2.11-.38,3.19-.38,10.7,0,21.4,0,32.1,0,3.56,0,5.44,1.28,5.37,3.64-.07,2.28-1.85,3.45-5.31,3.46-5.39,0-10.78,0-16.16,0Z"/>
<path class="uuid-11dc2e1f-3e65-4faf-b7a8-cce0273feaf4" d="m244.75,183.22c5.46,0,10.92,0,16.38,0,.92,0,1.84-.04,2.72.34,1.32.58,2.11,1.6,2.16,3.01.05,1.5-.69,2.65-2.11,3.27-1.09.48-2.24.46-3.4.46-10.61,0-21.22,0-31.83,0-.77,0-1.55,0-2.3-.14-1.98-.38-3.25-1.56-3.13-3.64.12-2.07,1.49-3.15,3.52-3.26,1.84-.1,3.69-.04,5.53-.04,4.15,0,8.3,0,12.46,0Z"/>
<path class="uuid-11dc2e1f-3e65-4faf-b7a8-cce0273feaf4" d="m244.6,224.53c-5.84,0-11.69.03-17.53-.02-2.24-.02-3.74-1.34-3.89-3.16-.16-1.9,1.3-3.46,3.56-3.8.23-.03.46-.06.69-.06,11.46,0,22.91-.04,34.37.02,2.62.01,4.27,1.57,4.25,3.61-.02,2.04-1.69,3.39-4.37,3.41-5.69.03-11.38,0-17.07,0h0Z"/>
<line class="uuid-35922f02-07f3-4fb0-9ccb-b5e8876f233f" x1="207.62" y1="140.34" x2="175.31" y2="34.1"/>
<line class="uuid-35922f02-07f3-4fb0-9ccb-b5e8876f233f" x1="206.88" y1="140.34" x2="239.19" y2="34.1"/>
</svg>