<?xml version="1.0" encoding="UTF-8"?>
<svg id="Capa_5" xmlns="http://www.w3.org/2000/svg" viewBox="0 0 496 454">
  <defs>
    <style>
      .cls-1 {
        font-family: WorkSans-Medium, 'Work Sans';
        font-size: 64.03px;
        font-weight: 500;
      }

      .cls-1, .cls-2 {
        fill="currentColor";
      }

      .cls-3 {
        letter-spacing: -.01em;
      }

      .cls-4 {
        letter-spacing: -.05em;
      }

      .cls-5 {
        letter-spacing: 0em;
      }
    </style>
  </defs>
  <text class="cls-1" transform="translate(63.54 358.83)"><tspan class="cls-4" x="0" y="0">F</tspan><tspan class="cls-5" x="35.98" y="0">a</tspan><tspan x="72.42" y="0">ctu</tspan><tspan class="cls-3" x="175.11" y="0">r</tspan><tspan class="cls-5" x="200.92" y="0">a</tspan><tspan x="237.35" y="0">ción</tspan></text>
  <g>
    <path class="cls-2" d="M245.26,164.24c-14.3,0-28.61,0-42.91,0-2.81,0-4.52-1.65-4.56-4.29-.03-2.1,1.05-3.69,2.92-4.32.96-.32,1.94-.33,2.93-.33,27.75,0,55.49,0,83.24.01.92,0,1.86.06,2.75.29,2.14.56,3.29,2.4,3.09,4.74-.18,2.2-1.79,3.85-3.99,3.87-6.1.05-12.21.02-18.31.03-8.39,0-16.77,0-25.16,0Z"/>
    <path class="cls-2" d="M245.26,189.72c-14.3,0-28.61,0-42.91,0-2.81,0-4.52-1.65-4.56-4.29-.03-2.1,1.05-3.69,2.92-4.31.96-.32,1.94-.33,2.93-.33,27.75,0,55.49,0,83.24.01.92,0,1.86.06,2.75.29,2.14.56,3.29,2.4,3.09,4.74-.18,2.2-1.79,3.85-3.99,3.87-6.1.05-12.21.02-18.31.03-8.39,0-16.77,0-25.16,0Z"/>
    <path class="cls-2" d="M249.98,96.7c-1.29,0-2.59-.05-3.88.01-2.06.1-3.47,1.49-3.64,3.47-.2,2.28.93,3.96,3.09,4.44.96.22,1.97.18,2.92.39,4.9,1.1,8.63,5.25,9.46,10.46.85,5.31-1.43,10.6-5.87,13.33-1.08.66-1.81,1.32-2.07,2.74-.38,2.05-1.81,3.16-3.71,3.28-1.82.12-3.3-.8-3.94-2.66-.45-1.31-1.13-1.75-2.34-1.62-.67.07-1.36.04-2.03,0-2.08-.13-3.65-1.71-3.84-3.83-.22-2.33.93-4.16,3.03-4.79,1.81-.54,3.68-.23,5.52-.29,1.05-.04,2.09.01,3.14-.02,2.43-.08,3.82-1.46,3.88-3.79.05-2.39-1.19-3.84-3.62-4.07-5.64-.52-9.68-3.39-11.49-9.28-1.75-5.68.58-11.91,5.45-14.87,1.07-.65,1.83-1.27,2.09-2.72.36-2.03,1.76-3.2,3.67-3.34,1.82-.13,3.3.74,3.97,2.6.47,1.31,1.2,1.69,2.39,1.58.67-.06,1.36-.04,2.03.03,2.21.24,3.78,2.03,3.83,4.32.05,2.39-1.52,4.34-3.8,4.54-1.41.13-2.83.02-4.25.02,0,.02,0,.03,0,.05Z"/>
    <path class="cls-2" d="M225.41,215.2c-7.76,0-15.52.02-23.29-.01-2.77-.01-4.49-1.94-4.32-4.72.12-1.94,1.11-3.18,2.77-3.82.94-.36,1.93-.38,2.92-.38,14.72,0,29.45,0,44.17,0,.68,0,1.36,0,2.02.14,2.29.45,3.85,2.51,3.63,4.74-.23,2.42-1.86,4.03-4.26,4.04-7.89.03-15.77.01-23.66.01Z"/>
    <path class="cls-2" d="M170.6,147.07c0-29.68.29-59.36-.13-89.03-.19-13.02,9.84-23.45,23.51-23.32,34.2.32,68.41.31,102.61,0,13.72-.12,23.57,10.3,23.5,23.33-.28,59.45-.12,118.91-.13,178.37,0,14.08-9.05,23.05-23.23,23.06-34.31.01-68.61-.22-102.92.12-13.04.13-23.52-10.01-23.34-23.19.4-29.77.13-59.55.13-89.33ZM311.05,147.13c0-29.48-.04-58.95.03-88.43.02-8.98-5.09-14.9-14.89-14.81-30.87.28-61.75.1-92.62.11-4.14,0-8.28-.08-12.41.1-5.53.24-10.15,4.35-11.11,9.75-.3,1.66-.5,3.37-.5,5.06-.03,58.85.01,117.71-.05,176.56-.01,9.01,4.98,15.05,15.04,14.97,33.8-.29,67.6-.11,101.4-.11,1.11,0,2.22,0,3.33-.06,5.69-.32,10.34-4.37,11.28-9.93.33-1.96.49-3.97.49-5.96.03-29.08.02-58.15.02-87.23Z"/>
  </g>
</svg>