<?xml version="1.0" encoding="UTF-8"?>
<svg id="uuid-89530e25-a7b6-48b0-b766-fc6d4e0371c8" xmlns="http://www.w3.org/2000/svg"
    viewBox="0 0 496.29 400">
    <defs>
        <style>.uuid-f19eda77-7cb5-4ff5-82db-46fa55d82e2a,.uuid-91bafaf8-d502-4318-91cb-3de359d43d73{fill="currentColor";}.uuid-91bafaf8-d502-4318-91cb-3de359d43d73{font-family:WorkSans-Medium,
            'Work Sans';font-size:64.03px;font-weight:500;}</style>
    </defs>
    <text class="uuid-91bafaf8-d502-4318-91cb-3de359d43d73" transform="translate(161.65 355.41)">
        <tspan x="0" y="0">PQRS</tspan>
    </text>
    <path class="uuid-f19eda77-7cb5-4ff5-82db-46fa55d82e2a"
        d="m258.6,30.43c7.9,1.86,13.89,6.16,17.35,13.66,1.3,2.81,2.01,5.77,2.01,8.89,0,25.45.05,50.91-.03,76.36-.03,11.31-9.29,21.3-20.56,22.46-1.66.17-3.34.36-5,.3-1.79-.06-2.42.55-2.39,2.39.09,6.49-.01,12.98.06,19.47.03,2.45-.45,4.51-2.89,5.61-2.44,1.1-4.35.06-6.11-1.58-8.65-8.03-17.33-16.02-25.94-24.09-1.32-1.24-2.63-1.8-4.44-1.79-16.09.06-32.17.07-48.26.02-8.3-.02-15.19-3.12-20.13-9.94-2.89-3.99-4.38-8.49-4.38-13.49.03-24.87,0-49.74.02-74.61,0-11.41,7.1-20.48,18.11-23.27.42-.11.83-.24,1.25-.37,33.78,0,67.55,0,101.33,0Zm-18.77,133.05c.58-1.03.37-1.84.38-2.62.03-4.3-.05-8.61.04-12.91.09-3.84,1.96-5.61,5.69-5.64,2.62-.02,5.24.03,7.86-.01,8.63-.16,14.34-5.88,14.35-14.5.03-24.43-.15-48.86.1-73.29.08-8.05-6.56-14.55-14.39-14.49-30.64.21-61.28.07-91.92.1-8.63,0-14.22,5.6-14.23,14.23-.03,24.5-.01,49,0,73.51,0,1.38,0,2.76.38,4.12,1.83,6.48,7.11,10.32,14.47,10.33,16.59.02,33.19.09,49.78-.06,3.33-.03,5.78.98,8.15,3.26,6.3,6.05,12.78,11.9,19.34,17.98Z" />
    <path class="uuid-f19eda77-7cb5-4ff5-82db-46fa55d82e2a"
        d="m358.36,232.07c-.08-13.47-10.38-23.85-23.81-23.89-8.61-.03-17.22-.03-25.83-.03h0s-.05,0-.08,0-.05,0-.08,0h0c-8.61,0-17.22,0-25.83.03-13.43.04-23.73,10.42-23.81,23.89-.04,5.68.07,11.37-.04,17.05-.05,2.68.86,4.67,3.2,5.98h3.49c2.34-1.31,3.25-3.29,3.2-5.98-.1-5.68-.06-11.37-.02-17.05.06-8.14,5.93-14.03,14.1-14.04,8.57-.02,17.14,0,25.71,0h.15c8.57,0,17.14-.02,25.71,0,8.17.01,14.04,5.9,14.1,14.04.04,5.68.08,11.37-.02,17.05-.05,2.68.86,4.67,3.2,5.98h3.49c2.34-1.31,3.25-3.29,3.2-5.98-.1-5.68,0-11.37-.04-17.05Z" />
    <path class="uuid-f19eda77-7cb5-4ff5-82db-46fa55d82e2a"
        d="m310.31,138.76c15.51-.03,28.29,12.67,28.32,28.14.03,15.54-12.88,28.53-28.31,28.45-15.27-.07-28.08-12.9-28.17-28.21-.09-15.35,12.82-28.35,28.16-28.38Zm18.48,28.23c-.02-10.13-8.24-18.36-18.35-18.37-10.05-.01-18.47,8.34-18.46,18.32,0,10.12,8.43,18.55,18.53,18.56,9.96,0,18.3-8.43,18.28-18.51Z" />
    <path class="uuid-f19eda77-7cb5-4ff5-82db-46fa55d82e2a"
        d="m212.84,81.85c0,5.98.03,11.96-.01,17.93-.02,3.1-1.63,5.09-4.26,5.5-2.9.45-5.44-1.79-5.53-5.07-.1-3.93-.04-7.87-.04-11.81,0-8.17.02-16.33,0-24.5,0-2.32.77-4.15,2.93-5.18,3.28-1.57,6.84.84,6.89,4.76.08,6.12.02,12.25.02,18.37Z" />
    <path class="uuid-f19eda77-7cb5-4ff5-82db-46fa55d82e2a"
        d="m212.81,119.09c0,2.61-2.24,4.9-4.84,4.93-2.59.03-4.88-2.21-4.93-4.83-.05-2.6,2.17-4.84,4.83-4.86,2.67-.02,4.93,2.17,4.93,4.77Z" />
</svg>