<?xml version="1.0" encoding="UTF-8"?><svg id="uuid-f079e37c-a6de-45cb-bf5d-a4cfd3936b5d" xmlns="http://www.w3.org/2000/svg" viewBox="0 0 200 194.32"><defs><style>.uuid-7bc07ab0-06d8-4c47-a3c8-7eb1ccd20644{fill:#fff;}.uuid-9f57d543-d5c7-4eb6-99cc-c2ef39384604{fill:#029902;}</style></defs><circle class="uuid-9f57d543-d5c7-4eb6-99cc-c2ef39384604" cx="100" cy="97.16" r="87.13"/><path class="uuid-7bc07ab0-06d8-4c47-a3c8-7eb1ccd20644" d="m147.04,85.22c-5.23-2.07-10.41-4.29-15.61-6.45-19.24-7.98-38.47-15.97-57.71-23.95-1.18-.49-2.37-.94-3.66-.98-6.38-.21-10.85,5.23-9.31,11.46,2.03,8.19,4.17,16.36,6.22,24.55h32.41c2.3,0,4.18,1.88,4.18,4.18h0c0,2.3-1.88,4.18-4.18,4.18h-32.39c-1.92,7.65-3.88,15.29-5.83,22.93-.39,1.53-.77,3.04-.72,4.64.16,5.14,5.37,9.35,10.43,8.4,2.29-.43,4.34-1.52,6.46-2.39,23.21-9.61,46.41-19.27,69.64-28.85,3.41-1.41,5.77-3.57,6.6-7.24v-3.27c-.82-3.63-3.11-5.85-6.52-7.2Z"/></svg>