<?xml version="1.0" encoding="UTF-8"?><svg id="uuid-a2fa498e-4dce-414e-8e26-96e5547f9444" xmlns="http://www.w3.org/2000/svg" viewBox="0 0 2089.86 417.84"><defs><style>.uuid-5038a180-b507-4f3d-b6fd-082e0708bf7a{letter-spacing:0em;}.uuid-819ff587-c2f5-45a2-8c2b-aae033571cae,.uuid-f214d8a3-842b-41d9-b6e6-5627548f8756,.uuid-0b621e07-7c9f-4715-8bd6-26056e06bc51{fill:#fff;}.uuid-7265c9ad-e346-43dd-b99f-3ceba3dbcc08{letter-spacing:-.05em;}.uuid-ac0a5713-4310-4251-b2ce-3fe1a25926cb{letter-spacing:-.02em;}.uuid-8d88acb7-37b8-4e4a-80ed-cfbcc6bfd9a1{fill:none;stroke-linecap:round;stroke-linejoin:round;stroke-width:10px;}.uuid-8d88acb7-37b8-4e4a-80ed-cfbcc6bfd9a1,.uuid-f214d8a3-842b-41d9-b6e6-5627548f8756{stroke:#fff;}.uuid-f214d8a3-842b-41d9-b6e6-5627548f8756{stroke-miterlimit:10;stroke-width:2px;}.uuid-0a1da921-a1ef-4b4a-a335-509fbdfd6567{letter-spacing:-.01em;}.uuid-0b621e07-7c9f-4715-8bd6-26056e06bc51{font-family:WorkSans-Medium, 'Work Sans';font-size:68.45px;font-weight:500;}.uuid-1c3d6799-db28-4f79-b166-e1cb3beeb677{letter-spacing:0em;}</style></defs><text class="uuid-0b621e07-7c9f-4715-8bd6-26056e06bc51" transform="translate(149.23 382.46)"><tspan class="uuid-0a1da921-a1ef-4b4a-a335-509fbdfd6567" x="0" y="0">A</tspan><tspan x="44.77" y="0">dmisiones </tspan></text><text class="uuid-0b621e07-7c9f-4715-8bd6-26056e06bc51" transform="translate(649.84 382.29)"><tspan class="uuid-ac0a5713-4310-4251-b2ce-3fe1a25926cb" x="0" y="0">A</tspan><tspan x="44.22" y="0">fili</tspan><tspan class="uuid-5038a180-b507-4f3d-b6fd-082e0708bf7a" x="130.4" y="0">a</tspan><tspan x="169.35" y="0">ciones </tspan></text><text class="uuid-0b621e07-7c9f-4715-8bd6-26056e06bc51" transform="translate(1148.02 381.2)"><tspan class="uuid-7265c9ad-e346-43dd-b99f-3ceba3dbcc08" x="0" y="0">F</tspan><tspan class="uuid-1c3d6799-db28-4f79-b166-e1cb3beeb677" x="38.47" y="0">a</tspan><tspan x="77.42" y="0">ctu</tspan><tspan class="uuid-0a1da921-a1ef-4b4a-a335-509fbdfd6567" x="187.22" y="0">r</tspan><tspan class="uuid-1c3d6799-db28-4f79-b166-e1cb3beeb677" x="214.8" y="0">a</tspan><tspan x="253.75" y="0">ción</tspan></text><text class="uuid-0b621e07-7c9f-4715-8bd6-26056e06bc51" transform="translate(1665.37 382.29)"><tspan x="0" y="0">PQRS</tspan></text><path class="uuid-819ff587-c2f5-45a2-8c2b-aae033571cae" d="m377.97,277.61c-19.4,0-38.8,0-58.2,0-.81,0-1.62.02-2.42-.01-2.87-.13-4.71-1.86-4.74-4.44-.03-2.59,1.8-4.41,4.62-4.55.99-.05,1.98-.02,2.96-.02,38.08,0,76.16,0,114.24,0,5.9,0,7.05-1.16,7.05-7.13,0-33.83,0-67.67,0-101.5,0-.63.02-1.26-.01-1.89-.15-3.61-1.75-5.19-5.4-5.2-11.23-.03-22.45-.01-33.68-.01-24.16,0-48.32,0-72.48,0-.99,0-1.98.04-2.96-.04-2.46-.22-4.34-2.05-4.31-4.36.03-2.45,1.3-4.09,3.76-4.57,1.22-.24,2.49-.32,3.74-.33,5.93-.03,11.86-.11,17.78.03,2.5.06,3.26-.89,3.24-3.32-.09-10.8-.06-21.6-.02-32.39.01-3.43.32-6.84,1.91-9.98,3.4-6.68,9.04-9.89,16.33-10,11.04-.17,22.09-.18,33.14,0,11.05.17,18.27,7.7,18.28,18.74.02,11.25.07,22.5-.05,33.74-.03,2.55.87,3.25,3.27,3.22,4.93-.05,9.87-.26,14.8.26,6.4.68,11.6,6.01,11.6,12.44.05,36.26.06,72.53,0,108.79-.01,7.12-5.81,12.51-13.19,12.52-19.76.04-39.52.01-59.27.02Zm7.97-134.07c7.36,0,14.73.01,22.09,0,3.31,0,3.46-.15,3.46-3.55.01-11.16.03-22.31,0-33.47-.02-6.16-3.16-9.29-9.3-9.3-10.78-.03-21.55-.03-32.33,0-6.05.01-9.37,3.29-9.39,9.31-.03,11.25.07,22.49-.07,33.74-.03,2.7.96,3.36,3.45,3.32,7.36-.12,14.73-.04,22.09-.04Z"/><path class="uuid-819ff587-c2f5-45a2-8c2b-aae033571cae" d="m308.2,146.52c0,13.41-.07,26.81.03,40.22.05,6.83-2.87,11.9-8.39,15.65-.89.61-1.78,1.22-2.69,1.79-4.04,2.55-5.86,5.93-5.79,10.99.27,18.53.11,37.07.1,55.6,0,1.08.07,2.19-.18,3.22-.51,2.15-1.96,3.43-4.19,3.55-2.26.12-3.81-1.05-4.48-3.15-.37-1.17-.45-2.48-.46-3.72-.03-18.8,0-37.61-.03-56.41,0-7.53,2.92-13.39,9.43-17.36,1.6-.98,3.09-2.17,4.53-3.37,2.2-1.84,3.14-4.23,3.14-7.14-.03-26.45,0-52.9-.03-79.36,0-6.49-3.36-9.8-9.8-9.81-10.69-.01-21.37-.02-32.06,0-5.97.01-9.45,3.34-9.46,9.31-.05,26.63-.03,53.26-.01,79.9,0,3.56,1.35,6.46,4.51,8.37,1.15.7,2.21,1.54,3.36,2.25,6.31,3.89,9.17,9.66,9.18,16.95.02,19.07.01,38.15-.01,57.22,0,1.07-.11,2.19-.45,3.18-.71,2.08-2.23,3.26-4.49,3.13-2.24-.12-3.68-1.41-4.18-3.56-.24-1.03-.18-2.15-.18-3.22,0-18.98-.06-37.97.04-56.95.02-3.58-1.2-6.28-4.04-8.31-1.61-1.15-3.23-2.28-4.84-3.42-5.19-3.68-7.94-8.58-7.93-15.07.05-26.9.01-53.8.03-80.71,0-10.59,7.14-18.18,17.71-18.39,11.31-.22,22.63-.22,33.94,0,10.58.21,17.69,7.79,17.7,18.4.02,13.41,0,26.81,0,40.22Z"/><path class="uuid-819ff587-c2f5-45a2-8c2b-aae033571cae" d="m386.13,35.38c11.75.02,20.82,9,21,20.81.18,11.7-9.14,21.03-21.02,21.04-11.92.01-21.11-9.1-21.11-20.93,0-11.82,9.21-20.94,21.13-20.92Zm-.09,32.51c6.57.01,11.74-4.99,11.81-11.42.07-6.58-5.1-11.73-11.77-11.73-6.66,0-11.67,4.87-11.73,11.42-.06,6.72,4.92,11.72,11.69,11.74Z"/><path class="uuid-819ff587-c2f5-45a2-8c2b-aae033571cae" d="m273.32,77.28c-11.78-.05-20.71-9.09-20.72-20.97-.01-12.07,9.1-21.06,21.26-20.98,11.71.08,20.77,9.37,20.58,21.11-.2,12.12-9.08,20.88-21.11,20.83Zm11.9-21.08c-.04-6.34-5.42-11.79-11.67-11.81-6.35-.02-11.77,5.54-11.72,12.03.05,6.37,5.39,11.78,11.67,11.8,6.36.02,11.76-5.52,11.72-12.02Z"/><path class="uuid-f214d8a3-842b-41d9-b6e6-5627548f8756" d="m839.69,153.37c24.44,0,48.89.24,73.33-.11,10.72-.15,19.31,8.04,19.21,19.21-.26,27.95-.26,55.91,0,83.86.1,11.21-8.48,19.26-19.21,19.21-48.97-.23-97.94-.1-146.91-.11-11.6,0-18.99-7.4-18.99-18.99,0-28.04.18-56.08-.1-84.11-.11-10.66,8.25-19.22,19.1-19.08,24.52.33,49.05.1,73.58.1Zm-.04,114.78c24.28,0,48.56-.04,72.83.02,7.4.02,12.27-4.16,12.2-12.17-.23-25.23-.08-50.46-.09-75.7,0-3.38.07-6.77-.08-10.14-.2-4.52-3.58-8.29-8.03-9.08-1.37-.24-2.78-.41-4.16-.41-48.47-.02-96.95,0-145.42-.04-7.42,0-12.4,4.07-12.33,12.29.24,27.62.09,55.25.09,82.87,0,.91,0,1.82.05,2.72.27,4.65,3.6,8.45,8.18,9.22,1.61.27,3.27.4,4.91.4,23.95.02,47.9.02,71.85.02Z"/><path class="uuid-f214d8a3-842b-41d9-b6e6-5627548f8756" d="m808.85,254.71c-20.9,1.41-40.34-15.52-42.02-36-1.98-24.11,15.48-42.43,35.65-44.52,23.9-2.47,42.58,15.12,44.68,35.91,2.48,24.62-16.51,43.98-38.31,44.62Zm.45-73.31c-15.99-.02-28.38,8.49-33.09,21.48-3.85,10.62-2.5,20.76,3.69,30.22,1.39,2.13,1.64,2.1,2.81-.08,2.39-4.47,5.72-8.08,10.04-10.67,1.76-1.06,1.4-1.66.23-2.83-3.35-3.36-5-7.55-5.27-12.22-.51-8.78,5.15-16.85,13.47-19.45,8.57-2.68,17.53.65,22.33,8.32,4.62,7.39,3.72,16.89-2.37,23.29-1.34,1.41-1.39,1.97.37,2.98,4.17,2.38,7.25,5.9,9.63,10.06,1.57,2.74,1.69,2.78,3.32.17,6.75-10.79,7.6-22.1,1.79-33.39-6.02-11.7-16.12-17.4-26.94-17.88Zm-2.34,44.43c-8.47.01-15.85,5.14-18.72,12.87-.62,1.66-.49,2.68,1.17,3.63,11.72,6.77,23.4,6.77,35.14.04,1.74-.99,1.9-2.05,1.23-3.81-2.94-7.7-10.31-12.75-18.82-12.73Zm11.84-19.12c.09-6.89-4.8-11.97-11.62-12.06-6.82-.09-11.87,4.72-11.99,11.39-.12,6.85,4.9,12.13,11.57,12.17,6.59.04,11.96-5.09,12.04-11.51Z"/><path class="uuid-f214d8a3-842b-41d9-b6e6-5627548f8756" d="m887.3,225.4c-5.84,0-11.68,0-17.53,0-1.07,0-2.15.04-3.15-.44-1.5-.71-2.25-1.95-2.16-3.57.08-1.51.86-2.63,2.33-3.19,1.11-.43,2.26-.41,3.41-.41,11.44,0,22.88,0,34.31,0,3.81,0,5.82,1.38,5.74,3.9-.07,2.45-1.98,3.7-5.68,3.71-5.76,0-11.52,0-17.28,0Z"/><path class="uuid-f214d8a3-842b-41d9-b6e6-5627548f8756" d="m887.47,199.44c5.84,0,11.67,0,17.51,0,.98,0,1.97-.05,2.91.37,1.42.62,2.26,1.71,2.31,3.23.05,1.61-.74,2.84-2.25,3.51-1.16.51-2.4.5-3.64.5-11.34,0-22.69,0-34.03,0-.82,0-1.66,0-2.45-.15-2.11-.41-3.48-1.67-3.35-3.9.13-2.21,1.6-3.38,3.76-3.5,1.97-.1,3.94-.04,5.92-.04,4.44,0,8.88,0,13.32,0Z"/><path class="uuid-f214d8a3-842b-41d9-b6e6-5627548f8756" d="m887.31,243.74c-6.25,0-12.49.04-18.74-.02-2.39-.02-4-1.44-4.16-3.39-.17-2.04,1.39-3.71,3.8-4.08.24-.04.49-.06.74-.06,12.25,0,24.5-.04,36.74.03,2.8.01,4.57,1.69,4.55,3.87-.02,2.19-1.8,3.64-4.67,3.65-6.08.03-12.17,0-18.25,0h0Z"/><path class="uuid-819ff587-c2f5-45a2-8c2b-aae033571cae" d="m1345.21,173.79c-15.29,0-30.59,0-45.88,0-3,0-4.83-1.75-4.87-4.55-.03-2.23,1.12-3.92,3.12-4.58,1.02-.34,2.08-.35,3.13-.35,29.66,0,59.33,0,88.99.02.98,0,1.99.06,2.93.31,2.28.6,3.52,2.55,3.31,5.03-.2,2.34-1.91,4.09-4.26,4.11-6.53.05-13.05.03-19.58.03-8.96,0-17.93,0-26.89,0Z"/><path class="uuid-819ff587-c2f5-45a2-8c2b-aae033571cae" d="m1345.21,200.86c-15.29,0-30.59,0-45.88,0-3,0-4.83-1.75-4.87-4.55-.03-2.23,1.12-3.92,3.12-4.58,1.02-.34,2.08-.35,3.13-.35,29.66,0,59.33,0,88.99.02.98,0,1.99.06,2.93.31,2.28.6,3.52,2.55,3.31,5.03-.2,2.34-1.91,4.09-4.27,4.11-6.53.05-13.05.03-19.58.03-8.96,0-17.93,0-26.89,0Z"/><path class="uuid-819ff587-c2f5-45a2-8c2b-aae033571cae" d="m1350.25,102.03c-1.38,0-2.77-.05-4.15.01-2.2.11-3.71,1.58-3.9,3.69-.21,2.43.99,4.2,3.3,4.72,1.02.23,2.1.19,3.13.42,5.24,1.17,9.22,5.57,10.11,11.12.91,5.64-1.53,11.26-6.27,14.16-1.15.7-1.93,1.4-2.21,2.91-.4,2.17-1.93,3.36-3.96,3.49-1.95.13-3.53-.85-4.21-2.83-.48-1.39-1.21-1.86-2.5-1.72-.72.08-1.45.04-2.17,0-2.22-.14-3.9-1.82-4.11-4.06-.23-2.48.99-4.42,3.24-5.09,1.94-.58,3.93-.24,5.9-.31,1.12-.04,2.24.01,3.36-.02,2.6-.09,4.09-1.55,4.15-4.03.06-2.54-1.28-4.08-3.87-4.32-6.03-.55-10.34-3.6-12.28-9.86-1.87-6.04.62-12.65,5.82-15.8,1.14-.69,1.96-1.35,2.23-2.89.38-2.16,1.88-3.4,3.92-3.55,1.94-.14,3.53.78,4.25,2.77.5,1.39,1.28,1.8,2.55,1.68.72-.07,1.45-.05,2.17.03,2.37.25,4.05,2.16,4.09,4.59.05,2.54-1.62,4.61-4.06,4.83-1.5.13-3.03.02-4.54.02,0,.02,0,.03,0,.05Z"/><path class="uuid-819ff587-c2f5-45a2-8c2b-aae033571cae" d="m1323.98,227.94c-8.3,0-16.6.02-24.9-.01-2.96-.01-4.8-2.07-4.61-5.02.13-2.06,1.19-3.38,2.96-4.06,1-.39,2.06-.41,3.12-.41,15.74,0,31.48,0,47.22,0,.72,0,1.46,0,2.16.15,2.45.47,4.12,2.67,3.89,5.03-.25,2.57-1.98,4.28-4.55,4.29-8.43.03-16.86.01-25.29.01Z"/><path class="uuid-819ff587-c2f5-45a2-8c2b-aae033571cae" d="m1265.39,155.55c0-31.53.31-63.07-.14-94.6-.2-13.84,10.52-24.92,25.13-24.78,36.57.34,73.14.33,109.71,0,14.67-.13,25.2,10.94,25.13,24.79-.3,63.17-.13,126.35-.14,189.52,0,14.96-9.68,24.5-24.84,24.5-36.68.01-73.36-.24-110.03.13-13.94.14-25.15-10.64-24.96-24.64.43-31.63.14-63.28.14-94.92Zm150.16.06c0-31.32-.05-62.64.03-93.96.02-9.54-5.45-15.83-15.92-15.74-33.01.3-66.02.11-99.02.11-4.42,0-8.85-.09-13.27.1-5.91.25-10.85,4.62-11.88,10.36-.32,1.77-.54,3.58-.54,5.37-.03,62.54.01,125.07-.06,187.61-.01,9.58,5.32,15.99,16.08,15.9,36.13-.31,72.27-.12,108.41-.12,1.19,0,2.37,0,3.56-.06,6.08-.34,11.06-4.65,12.06-10.55.35-2.08.52-4.22.53-6.33.03-30.9.02-61.79.02-92.69Z"/><path class="uuid-819ff587-c2f5-45a2-8c2b-aae033571cae" d="m1772.43,36.16c8.45,1.99,14.85,6.58,18.55,14.61,1.39,3,2.15,6.17,2.15,9.5,0,27.21.05,54.42-.03,81.64-.03,12.09-9.93,22.77-21.98,24.01-1.78.18-3.57.38-5.35.32-1.91-.07-2.59.59-2.56,2.55.1,6.94-.01,13.88.06,20.82.03,2.62-.48,4.82-3.09,5.99-2.61,1.18-4.65.06-6.54-1.68-9.25-8.58-18.53-17.13-27.73-25.76-1.41-1.32-2.81-1.93-4.75-1.92-17.2.06-34.4.07-51.59.02-8.87-.03-16.24-3.33-21.52-10.63-3.09-4.27-4.69-9.08-4.68-14.42.03-26.59,0-53.18.02-79.76,0-12.2,7.59-21.9,19.36-24.88.45-.11.89-.26,1.34-.39,36.11,0,72.22,0,108.33,0Zm-20.07,142.24c.62-1.1.4-1.97.4-2.8.03-4.6-.06-9.2.05-13.8.09-4.1,2.09-6,6.09-6.03,2.8-.02,5.6.03,8.4-.02,9.23-.17,15.34-6.29,15.35-15.5.03-26.12-.16-52.24.11-78.35.09-8.6-7.01-15.56-15.38-15.5-32.76.23-65.52.08-98.28.1-9.23,0-15.2,5.98-15.21,15.22-.03,26.2-.01,52.39,0,78.59,0,1.48,0,2.95.41,4.4,1.96,6.93,7.6,11.03,15.47,11.04,17.74.03,35.48.09,53.22-.06,3.56-.03,6.18,1.05,8.71,3.48,6.73,6.47,13.66,12.73,20.67,19.22Z"/><path class="uuid-819ff587-c2f5-45a2-8c2b-aae033571cae" d="m1875.62,275.71c-2.56-1.53-3.35-3.89-3.33-6.74.05-6,.06-12,0-18-.08-8.68-6.26-14.88-14.9-14.89-19.68-.03-39.35-.03-59.03,0-8.73.02-15.01,6.3-15.07,15.01-.04,6.08-.09,12.16.02,18.23.05,2.87-.92,4.99-3.42,6.39h-3.74c-2.5-1.4-3.48-3.52-3.42-6.39.11-6.08,0-12.16.04-18.23.09-14.4,11.1-25.5,25.46-25.54,19.44-.06,38.89-.03,58.33-.01,12.75,0,22.11,7.11,25.62,19.38.13.45.29.88.44,1.33,0,9.36-.02,18.71.03,28.07,0,1.17-.26,1.51-1.43,1.43-1.86-.11-3.73-.03-5.6-.03Z"/><path class="uuid-819ff587-c2f5-45a2-8c2b-aae033571cae" d="m1827.71,150.67c16.58-.03,30.25,13.55,30.28,30.08.04,16.62-13.77,30.5-30.27,30.42-16.33-.08-30.03-13.79-30.12-30.16-.09-16.41,13.7-30.31,30.1-30.35Zm19.76,30.18c-.02-10.83-8.81-19.63-19.61-19.64-10.75-.02-19.75,8.92-19.74,19.59,0,10.82,9.01,19.84,19.81,19.84,10.65,0,19.56-9.02,19.54-19.79Z"/><path class="uuid-819ff587-c2f5-45a2-8c2b-aae033571cae" d="m1723.51,91.14c0,6.39.03,12.78-.01,19.17-.02,3.31-1.74,5.44-4.55,5.88-3.1.48-5.82-1.92-5.91-5.43-.11-4.21-.04-8.42-.04-12.63,0-8.73.02-17.46,0-26.19,0-2.48.83-4.44,3.13-5.54,3.51-1.67,7.31.9,7.36,5.08.09,6.55.02,13.09.03,19.64Z"/><path class="uuid-819ff587-c2f5-45a2-8c2b-aae033571cae" d="m1723.48,130.95c0,2.79-2.4,5.23-5.17,5.27-2.77.03-5.21-2.37-5.27-5.17-.06-2.78,2.32-5.18,5.17-5.2,2.85-.02,5.27,2.32,5.27,5.1Z"/><line class="uuid-8d88acb7-37b8-4e4a-80ed-cfbcc6bfd9a1" x1="847.78" y1="164.17" x2="813.23" y2="41.35"/><line class="uuid-8d88acb7-37b8-4e4a-80ed-cfbcc6bfd9a1" x1="846.98" y1="164.17" x2="881.52" y2="41.35"/><path class="uuid-819ff587-c2f5-45a2-8c2b-aae033571cae" d="m71.38,161.28c-3.48,3.48-6.96,6.96-10.44,10.44-5.55,5.55-11.11,11.11-16.66,16.66-1.28,1.28-2.57,2.57-3.85,3.85-2.29,2.29-2.3,6.19,0,8.49,3.39,3.39,6.78,6.78,10.17,10.17,5.44,5.44,10.88,10.88,16.33,16.33,1.25,1.25,2.49,2.49,3.74,3.74,2.22,2.22,6.29,2.39,8.49,0s2.37-6.11,0-8.49c-3.39-3.39-6.78-6.78-10.17-10.17-5.44-5.44-10.88-10.88-16.33-16.33-1.25-1.25-2.49-2.49-3.74-3.74v8.49c3.48-3.48,6.96-6.96,10.44-10.44,5.55-5.55,11.11-11.11,16.66-16.66,1.28-1.28,2.57-2.57,3.85-3.85,2.22-2.22,2.39-6.29,0-8.49s-6.11-2.37-8.49,0h0Z"/><path class="uuid-819ff587-c2f5-45a2-8c2b-aae033571cae" d="m2027.27,171.4c3.48,3.48,6.96,6.96,10.44,10.44,5.55,5.55,11.11,11.11,16.66,16.66,1.28,1.28,2.57,2.57,3.85,3.85v-8.49c-3.39,3.39-6.78,6.78-10.17,10.17-5.44,5.44-10.88,10.88-16.33,16.33-1.25,1.25-2.49,2.49-3.74,3.74-2.22,2.22-2.39,6.29,0,8.49s6.11,2.37,8.49,0c3.39-3.39,6.78-6.78,10.17-10.17,5.44-5.44,10.88-10.88,16.33-16.33,1.25-1.25,2.49-2.49,3.74-3.74,2.29-2.29,2.3-6.19,0-8.49-3.48-3.48-6.96-6.96-10.44-10.44-5.55-5.55-11.11-11.11-16.66-16.66-1.28-1.28-2.57-2.57-3.85-3.85-2.22-2.22-6.29-2.39-8.49,0s-2.37,6.11,0,8.49h0Z"/></svg>